<svg width="215" height="216" viewBox="0 0 215 216" fill="none" xmlns="http://www.w3.org/2000/svg">
<g filter="url(#filter0_d_1_44)">
<rect x="4" width="207" height="208" rx="20" fill="#9568A1"/>
<path d="M60.875 19C52.2223 19 43.924 22.4373 37.8056 28.5556C31.6873 34.674 28.25 42.9723 28.25 51.625V77.0725C28.25 84.9895 28.076 88.02 27.2205 90.1805C26.7565 91.326 25.698 93.3125 19.7675 96.2705C17.9597 97.1732 16.4392 98.5616 15.3764 100.28C14.3137 101.999 13.7507 103.979 13.7507 106C13.7507 108.021 14.3137 110.001 15.3764 111.72C16.4392 113.438 17.9597 114.827 19.7675 115.729C25.698 118.687 26.7565 120.674 27.2205 121.819C28.0905 123.994 28.25 127.039 28.25 135V160.375C28.25 169.028 31.6873 177.326 37.8056 183.444C43.924 189.563 52.2223 193 60.875 193C63.7592 193 66.5253 191.854 68.5648 189.815C70.6042 187.775 71.75 185.009 71.75 182.125C71.75 179.241 70.6042 176.475 68.5648 174.435C66.5253 172.396 63.7592 171.25 60.875 171.25C57.9908 171.25 55.2247 170.104 53.1852 168.065C51.1458 166.025 50 163.259 50 160.375V133.942C50 127.62 50.0145 120.268 47.4045 113.743C46.2445 110.843 44.6833 108.262 42.721 106C44.6833 103.738 46.2445 101.162 47.4045 98.2715C50.0145 91.7465 50.0145 84.4095 50.0145 78.1165L50 51.625C50 48.7408 51.1458 45.9747 53.1852 43.9352C55.2247 41.8958 57.9908 40.75 60.875 40.75C63.7592 40.75 66.5253 39.6042 68.5648 37.5648C70.6042 35.5253 71.75 32.7592 71.75 29.875C71.75 26.9908 70.6042 24.2247 68.5648 22.1852C66.5253 20.1458 63.7592 19 60.875 19ZM155.125 19C163.778 19 172.076 22.4373 178.194 28.5556C184.313 34.674 187.75 42.9723 187.75 51.625V77.0725C187.75 84.9895 187.91 88.02 188.78 90.1805C189.244 91.326 190.302 93.3125 196.233 96.2705C198.04 97.1732 199.561 98.5616 200.624 100.28C201.686 101.999 202.249 103.979 202.249 106C202.249 108.021 201.686 110.001 200.624 111.72C199.561 113.438 198.04 114.827 196.233 115.729C190.302 118.687 189.244 120.674 188.78 121.819C187.91 123.994 187.75 127.039 187.75 135V160.375C187.75 169.028 184.313 177.326 178.194 183.444C172.076 189.563 163.778 193 155.125 193C152.241 193 149.475 191.854 147.435 189.815C145.396 187.775 144.25 185.009 144.25 182.125C144.25 179.241 145.396 176.475 147.435 174.435C149.475 172.396 152.241 171.25 155.125 171.25C158.009 171.25 160.775 170.104 162.815 168.065C164.854 166.025 166 163.259 166 160.375V133.942C166 127.62 165.985 120.268 168.595 113.743C169.755 110.843 171.317 108.262 173.279 106C171.303 103.699 169.721 101.088 168.595 98.2715C165.985 91.7465 165.985 84.4095 165.985 78.1165L166 51.625C166 48.7408 164.854 45.9747 162.815 43.9352C160.775 41.8958 158.009 40.75 155.125 40.75C152.241 40.75 149.475 39.6042 147.435 37.5648C145.396 35.5253 144.25 32.7592 144.25 29.875C144.25 26.9908 145.396 24.2247 147.435 22.1852C149.475 20.1458 152.241 19 155.125 19Z" fill="white"/>
<path d="M126.451 61.0001C122.42 60.9992 118.441 61.9092 114.812 63.662C111.182 65.4149 107.995 67.9654 105.49 71.1229C102.985 74.2803 101.225 77.9632 100.343 81.8962C99.461 85.8292 99.4791 89.9107 100.396 93.8357L66.6176 128.845C64.2286 131.379 62.9305 134.75 63.0029 138.231C63.0752 141.713 64.5122 145.027 67.0044 147.46C69.4966 149.892 72.8445 151.249 76.327 151.237C79.8096 151.225 83.1481 149.845 85.6234 147.396L119.108 113.477C123.38 114.693 127.889 114.827 132.226 113.865C136.563 112.904 140.593 110.878 143.951 107.971C147.31 105.063 149.892 101.365 151.465 97.2107C153.038 93.0559 153.551 88.5751 152.96 84.1722C152.878 83.5532 152.624 82.9696 152.227 82.4874C151.83 82.0052 151.306 81.6437 150.715 81.444C150.123 81.2442 149.487 81.2141 148.88 81.3571C148.272 81.5001 147.716 81.8104 147.276 82.2529L133.138 96.397L117.804 81.0626L131.948 66.9185C132.39 66.4779 132.701 65.9222 132.844 65.3144C132.987 64.7065 132.956 64.0708 132.757 63.4791C132.557 62.8875 132.195 62.3636 131.713 61.9669C131.231 61.5701 130.647 61.3162 130.028 61.2341C128.84 61.0759 127.643 60.9977 126.444 61.0001" fill="white"/>
</g>
<defs>
<filter id="filter0_d_1_44" x="0" y="0" width="215" height="216" filterUnits="userSpaceOnUse" color-interpolation-filters="sRGB">
<feFlood flood-opacity="0" result="BackgroundImageFix"/>
<feColorMatrix in="SourceAlpha" type="matrix" values="0 0 0 0 0 0 0 0 0 0 0 0 0 0 0 0 0 0 127 0" result="hardAlpha"/>
<feOffset dy="4"/>
<feGaussianBlur stdDeviation="2"/>
<feComposite in2="hardAlpha" operator="out"/>
<feColorMatrix type="matrix" values="0 0 0 0 0 0 0 0 0 0 0 0 0 0 0 0 0 0 0.25 0"/>
<feBlend mode="normal" in2="BackgroundImageFix" result="effect1_dropShadow_1_44"/>
<feBlend mode="normal" in="SourceGraphic" in2="effect1_dropShadow_1_44" result="shape"/>
</filter>
</defs>
</svg>
